<svg width="182" height="40" viewBox="0 0 182 40" fill="none" xmlns="http://www.w3.org/2000/svg">
<g clip-path="url(#clip0_173_3921)">
<path d="M31.578 12.1252C31.5888 14.5628 30.8566 16.9459 29.4789 18.957C28.3859 20.6118 26.8865 21.9586 25.1243 22.8683C23.9553 23.5119 22.6857 23.9527 21.3694 24.1721H21.239H20.7045L18.6836 23.103L11.4737 19.2308L4.56365 22.9074V19.2177L11.4737 15.5411L21.3563 20.7562L21.9822 20.5867C24.0791 19.9815 25.8741 18.6143 27.0148 16.7536C27.8286 15.4083 28.2712 13.8712 28.2973 12.299C28.3235 10.7269 27.9323 9.17594 27.1636 7.80428C26.395 6.43262 25.2763 5.28931 23.9218 4.49092C22.5672 3.69252 21.0252 3.26759 19.4528 3.25945H3.25986V12.6858L0.000411987 14.4198V0H19.4528C22.6676 0.00345114 25.7496 1.28203 28.0228 3.55519C30.296 5.82835 31.5745 8.91043 31.578 12.1252Z" fill="#B6A08F"/>
<path d="M29.4919 21.0691C28.7594 21.8994 27.9224 22.6313 27.0017 23.2465C27.8588 24.6378 28.3104 26.2408 28.3055 27.8749C28.302 30.2252 27.3669 32.4782 25.705 34.1401C24.0431 35.802 21.7901 36.7371 19.4398 36.7406H3.25986V17.8488L4.56365 17.1578L11.4737 13.4681L20.5219 18.253L22.1256 19.1656C23.2791 18.7356 24.309 18.0281 25.1243 17.1057L22.1647 15.4368L11.4737 9.7784L4.56365 13.4551L0.000411987 15.8931V40H19.4528C21.656 40.0008 23.8177 39.4012 25.7058 38.2658C27.5938 37.1304 29.1369 35.502 30.169 33.5556C31.2012 31.6091 31.6836 29.4183 31.5643 27.2183C31.445 25.0184 30.7286 22.8925 29.4919 21.0691Z" fill="white"/>
<path d="M69.8834 40L60.685 27.1485C59.6243 27.261 58.5584 27.318 57.4918 27.3193H46.7428V40H42.5115V0H57.4918C67.6626 0 73.8256 5.13798 73.8256 13.7188C73.9576 16.5499 73.1173 19.3411 71.444 21.6287C69.7707 23.9163 67.3653 25.5626 64.6271 26.2943L74.4563 40H69.8834ZM69.66 13.7188C69.6074 7.31932 65.3762 3.60053 57.3735 3.60053H46.7428V23.7188H57.3735C65.3762 23.7188 69.6074 20 69.6074 13.7188H69.66Z" fill="white"/>
<path d="M79.8969 19.9742C79.8969 8.52903 88.6453 0 100.542 0C112.439 0 121.187 8.47742 121.187 19.9742C121.187 31.471 112.323 40 100.542 40C88.7614 40 79.8969 31.4194 79.8969 19.9742ZM116.981 19.9742C117.031 17.8094 116.639 15.6572 115.829 13.6492C115.018 11.6412 113.806 9.81984 112.267 8.29658C110.728 6.77331 108.895 5.58023 106.879 4.79041C104.862 4.00058 102.706 3.63064 100.542 3.70323C91.0582 3.70323 83.9872 10.6065 83.9872 19.9742C83.9872 29.3419 91.0582 36.2452 100.542 36.2452C102.706 36.3177 104.862 35.9478 106.879 35.158C108.895 34.3682 110.728 33.1751 112.267 31.6518C113.806 30.1285 115.018 28.3072 115.829 26.2992C116.639 24.2912 117.031 22.139 116.981 19.9742Z" fill="white"/>
<path d="M126.968 19.9742C126.968 8.52903 135.716 0 147.613 0C159.51 0 168.258 8.47742 168.258 19.9742C168.258 31.471 159.394 40 147.613 40C135.832 40 126.968 31.4194 126.968 19.9742ZM164.052 19.9742C164.102 17.8094 163.71 15.6572 162.9 13.6492C162.089 11.6412 160.877 9.81984 159.338 8.29658C157.799 6.77331 155.966 5.58023 153.949 4.79041C151.933 4.00058 149.777 3.63064 147.613 3.70323C138.129 3.70323 131.058 10.6065 131.058 19.9742C131.058 29.3419 138.129 36.2452 147.613 36.2452C149.777 36.3177 151.933 35.9478 153.949 35.158C155.966 34.3682 157.799 33.1751 159.338 31.6518C160.877 30.1285 162.089 28.3072 162.9 26.2992C163.71 24.2912 164.102 22.139 164.052 19.9742Z" fill="white"/>
<path d="M177.485 0H181.703V40H177.485V0Z" fill="white"/>
</g>
<defs>
<clipPath id="clip0_173_3921">
<rect width="181.935" height="40" fill="white"/>
</clipPath>
</defs>
</svg>
