<?xml version="1.0" encoding="UTF-8"?>
<!DOCTYPE svg PUBLIC "-//W3C//DTD SVG 1.1//EN" "http://www.w3.org/Graphics/SVG/1.1/DTD/svg11.dtd">
<!-- Creator: CorelDRAW -->
<svg xmlns="http://www.w3.org/2000/svg" xml:space="preserve" width="194mm" height="84mm" version="1.1" style="shape-rendering:geometricPrecision; text-rendering:geometricPrecision; image-rendering:optimizeQuality; fill-rule:evenodd; clip-rule:evenodd"
viewBox="0 0 19400 8400"
 xmlns:xlink="http://www.w3.org/1999/xlink"
 xmlns:xodm="http://www.corel.com/coreldraw/odm/2003">
 <defs>
  <style type="text/css">
   <![CDATA[
    .fil0 {fill:#000428;fill-rule:nonzero}
    .fil1 {fill:#D9772E;fill-rule:nonzero}
   ]]>
  </style>
   <mask id="id0">
  <radialGradient id="id1" gradientUnits="userSpaceOnUse" cx="5010.2" cy="243.32" r="798.78" fx="5010.2" fy="243.32">
   <stop offset="0" style="stop-opacity:1; stop-color:white"/>
   <stop offset="1" style="stop-opacity:0; stop-color:white"/>
  </radialGradient>
    <rect style="fill:url(#id1)" x="5204.71" y="1.83" width="9003.05" height="8396.36"/>
   </mask>
 </defs>
 <g id="Layer_x0020_1">
  <metadata id="CorelCorpID_0Corel-Layer"/>
  <path class="fil0" d="M18085.79 2175.95l0 -1730.78c0,-244.13 -199.21,-443.34 -443.34,-443.34l-1150.65 0c-244.13,0 -443.34,199.21 -443.34,443.34l0 7509.68c0,244.13 199.21,443.34 443.34,443.34l1150.65 0c244.13,0 443.34,-199.21 443.34,-443.34l0 -1867.43c0,-99.17 28.14,-184.48 87.21,-264.11l1062.12 -1432.4c118.42,-159.69 118.13,-369.84 -0.87,-529.24l-1060.38 -1420.44c-59.64,-79.92 -88.08,-165.53 -88.08,-265.28z"/>
  <path class="fil0" d="M2920.75 1.83l-1163.04 0c-244.13,0 -443.35,199.21 -443.35,443.34l0 1730.78c0,99.75 -28.43,185.36 -88.08,265.28l-1060.52 1420.29c-119,159.4 -119.29,369.55 -0.88,529.39l1062.27 1432.4c59.07,79.63 87.21,164.94 87.21,264.11l0 1867.43c0,244.13 199.22,443.34 443.35,443.34l1163.04 0c244.13,0 443.34,-199.21 443.34,-443.34l0 -7509.68c0,-244.13 -199.21,-443.34 -443.34,-443.34z"/>
  <path class="fil1" d="M12570.99 8398.19l1191.92 0c153.56,0 285.69,-71.17 370.27,-199.36 84.44,-128.33 97.71,-277.81 37.05,-418.98l-3224.73 -7509.54c-71.46,-166.4 -226.19,-268.48 -407.32,-268.48l-1674.93 0c-181.27,0 -336.29,102.23 -407.61,268.92l-3213.64 7509.68c-60.38,141.17 -47.11,290.5 37.48,418.55 84.58,128.19 216.56,199.21 370.13,199.21l1183.02 0c181.71,0 337.03,-102.81 408.05,-270.09l326.38 -768.7c71.02,-167.27 226.34,-270.09 408.05,-270.09l3460.54 0c183.03,0 339.37,104.42 409.51,273.44l316.32 762c70.15,169.02 226.48,273.44 409.51,273.44zm-3923.28 -3580.27l659.47 -1550.82c71.31,-167.72 227.21,-270.38 409.36,-269.95 182.29,0.59 337.61,104.42 407.76,272.57l647.36 1550.97c58.92,141.02 44.48,289.34 -40.25,416.5 -84.73,127.32 -216.13,197.61 -368.96,197.61l-1306.69 0c-153.42,0 -285.26,-70.87 -369.84,-198.77 -84.59,-127.9 -98.15,-276.94 -38.21,-418.11z"/>
  <path class="fil0" style="mask:url(#id0)" d="M12570.99 8398.19l1191.92 0c153.56,0 285.69,-71.17 370.27,-199.36 84.44,-128.33 97.71,-277.81 37.05,-418.98l-3224.73 -7509.54c-71.46,-166.4 -226.19,-268.48 -407.32,-268.48l-1674.93 0c-181.27,0 -336.29,102.23 -407.61,268.92l-3213.64 7509.68c-60.38,141.17 -47.11,290.5 37.48,418.55 84.58,128.19 216.56,199.21 370.13,199.21l1183.02 0c181.71,0 337.03,-102.81 408.05,-270.09l326.38 -768.7c71.02,-167.27 226.34,-270.09 408.05,-270.09l3460.54 0c183.03,0 339.37,104.42 409.51,273.44l316.32 762c70.15,169.02 226.48,273.44 409.51,273.44zm-3923.28 -3580.27l659.47 -1550.82c71.31,-167.72 227.21,-270.38 409.36,-269.95 182.29,0.59 337.61,104.42 407.76,272.57l647.36 1550.97c58.92,141.02 44.48,289.34 -40.25,416.5 -84.73,127.32 -216.13,197.61 -368.96,197.61l-1306.69 0c-153.42,0 -285.26,-70.87 -369.84,-198.77 -84.59,-127.9 -98.15,-276.94 -38.21,-418.11z"/>
 </g>
</svg>
