<?xml version="1.0" encoding="UTF-8"?>
<!DOCTYPE svg PUBLIC "-//W3C//DTD SVG 1.1//EN" "http://www.w3.org/Graphics/SVG/1.1/DTD/svg11.dtd">
<!-- Creator: CorelDRAW -->
<svg xmlns="http://www.w3.org/2000/svg" xml:space="preserve" width="210mm" height="23mm" version="1.1" style="shape-rendering:geometricPrecision; text-rendering:geometricPrecision; image-rendering:optimizeQuality; fill-rule:evenodd; clip-rule:evenodd"
viewBox="0 0 21000 2300"
 xmlns:xlink="http://www.w3.org/1999/xlink"
 xmlns:xodm="http://www.corel.com/coreldraw/odm/2003">
 <defs>
  <style type="text/css">
   <![CDATA[
    .fil3 {fill:black;fill-rule:nonzero}
    .fil1 {fill:#500517;fill-rule:nonzero}
    .fil0 {fill:#FF0065;fill-rule:nonzero}
    .fil2 {fill:white;fill-rule:nonzero}
   ]]>
  </style>
     <mask id="id0">
  <radialGradient id="id1" gradientUnits="userSpaceOnUse" cx="11739.41" cy="1436.99" r="184.54" fx="11739.41" fy="1436.99">
   <stop offset="0" style="stop-opacity:1; stop-color:white"/>
   <stop offset="0.290196" style="stop-opacity:0.501961; stop-color:white"/>
   <stop offset="1" style="stop-opacity:0; stop-color:white"/>
  </radialGradient>
      <rect style="fill:url(#id1)" x="12039.63" y="863.32" width="1244.94" height="1303.06"/>
     </mask>
      <mask id="id2">
  <radialGradient id="id3" gradientUnits="userSpaceOnUse" cx="10904.43" cy="1680.61" r="177.62" fx="10904.43" fy="1680.61">
   <stop offset="0" style="stop-opacity:1; stop-color:white"/>
   <stop offset="0.290196" style="stop-opacity:0.501961; stop-color:white"/>
   <stop offset="1" style="stop-opacity:0; stop-color:white"/>
  </radialGradient>
       <rect style="fill:url(#id3)" x="10616.99" y="1106.83" width="1287.58" height="1096.81"/>
      </mask>
 </defs>
 <g id="Layer_x0020_1">
  <metadata id="CorelCorpID_0Corel-Layer"/>
  <g id="_105553287025376">
   <path class="fil0" d="M19486.9 600.79l0 -435.48c0,-61.42 -50.12,-111.55 -111.55,-111.55l-289.51 0c-61.43,0 -111.55,50.13 -111.55,111.55l0 1889.5c0,61.43 50.12,111.55 111.55,111.55l289.51 0c61.43,0 111.55,-50.12 111.55,-111.55l0 -469.86c0,-24.95 7.08,-46.42 21.94,-66.45l267.24 -360.41c29.8,-40.17 29.72,-93.05 -0.22,-133.16l-266.8 -357.39c-15,-20.11 -22.16,-41.65 -22.16,-66.75z"/>
   <path class="fil0" d="M1917.31 53.76l-292.63 0c-61.42,0 -111.55,50.13 -111.55,111.55l0 435.48c0,25.1 -7.15,46.64 -22.16,66.75l-266.84 357.36c-29.94,40.1 -30.01,92.98 -0.22,133.19l267.28 360.41c14.86,20.03 21.94,41.5 21.94,66.45l0 469.86c0,61.43 50.13,111.55 111.55,111.55l292.63 0c61.43,0 111.55,-50.12 111.55,-111.55l0 -1889.5c0,-61.42 -50.12,-111.55 -111.55,-111.55z"/>
   <g>
    <g>
     <path class="fil0" d="M18180.44 53.76l-317.44 0c-45.5,0 -84.36,25.54 -102.41,67.3l-521.16 1206.19c-18.02,41.72 -56.84,67.26 -102.3,67.3 -45.43,0.04 -84.33,-25.43 -102.42,-67.11l-523.83 -1206.56c-18.09,-41.65 -56.92,-67.12 -102.31,-67.12l-317.76 0c-38.86,0 -72.29,18.13 -93.5,50.68 -21.17,32.58 -24.25,70.45 -8.51,106l836.36 1889.51c18.27,41.28 56.87,66.41 102.01,66.41l414.12 0c45.1,0 83.62,-25.06 101.93,-66.27l839.15 -1889.5c15.78,-35.55 12.77,-73.46 -8.4,-106.08 -21.21,-32.58 -54.64,-50.75 -93.53,-50.75z"/>
     <path class="fil0" d="M14225.14 165.31l0 1889.5c0,61.43 50.13,111.55 111.55,111.55l1395.5 0c61.42,0 111.55,-50.12 111.55,-111.55l0 -249.11c0,-61.42 -50.13,-111.55 -111.55,-111.55l-886.01 0c-61.42,0 -111.54,-50.12 -111.54,-111.55l0 -140.39c0,-61.42 50.12,-111.54 111.54,-111.54l702.72 0c61.43,0 111.55,-50.13 111.55,-111.55l0 -218.07c0,-61.43 -50.12,-111.55 -111.55,-111.55l-702.72 0c-61.42,0 -111.54,-50.13 -111.54,-111.55l0 -140.39c0,-61.43 50.12,-111.55 111.54,-111.55l886.01 0c61.42,0 111.55,-50.12 111.55,-111.55l0 -249.15c0,-61.42 -50.13,-111.55 -111.55,-111.55l-1395.5 0c-61.42,0 -111.55,50.13 -111.55,111.55z"/>
     <path class="fil0" d="M12974.75 52.73l-823.91 2.76c-61.34,0.19 -111.21,50.24 -111.21,111.54l0 1276.26c0,90.92 -59.84,167.73 -148.01,189.98 -58.54,14.77 -111.01,45.26 -152.49,86.73l-0.43 0.44c-59.71,59.74 -96.7,142.16 -96.7,232.98 0,90.82 36.99,173.21 96.7,232.98l0.43 0.43c59.74,59.71 142.16,96.7 232.99,96.7 78.37,0 150.49,-27.59 207.18,-73.48 36.33,-29.43 76.54,-43.67 123.3,-43.67l672.15 0c658.63,0 1115.33,-444.28 1115.33,-1059.38 0,-609.46 -419.41,-1057.36 -1115.33,-1054.27zm-314.08 472.77l314.08 0c360.4,0 599.59,201.94 599.59,581.5 0,354.15 -245.44,587.14 -599.59,587.14l-314.08 0c-61.4,0 -111.54,-50.11 -111.54,-111.55l0 -945.54c0,-61.44 50.14,-111.55 111.54,-111.55z"/>
    </g>
    <path class="fil1" style="mask:url(#id0)" d="M12039.63 863.32l0 766.96c63.79,13.35 120.9,45.23 165.47,89.72l0.43 0.44c59.71,59.74 96.7,142.16 96.7,232.98 0,81.06 -29.49,155.41 -78.27,212.96l750.79 0c109.21,0 212.86,-12.29 309.82,-35.47l-428.97 -436.77 -194.93 0c-61.4,0 -111.54,-50.11 -111.54,-111.55l0 -200.5 -509.5 -518.77z"/>
    <g>
     <g>
      <path class="fil2" d="M11009.8 16.47c-481.54,0 -860.54,285.85 -860.54,671.12 0,469.08 556.09,587.17 872.96,661.72 195.72,46.59 372.82,93.21 372.82,226.77 0,90.1 -83.88,186.4 -310.69,186.4 -294.62,0 -402.17,-165.58 -440.1,-264.1 -16.93,-43.9 -57.01,-71.43 -104.1,-71.43l-298.27 0c-34.84,0 -64.82,14.31 -86.74,41.34 -21.88,27.1 -29.62,59.38 -22.38,93.45 64.79,304.44 348.94,641.9 923.63,641.9 239.96,0 446.94,-59.41 596.34,-166.77 -7.01,-26.67 -10.73,-54.63 -10.73,-83.45 0,-90.82 36.99,-173.24 96.7,-232.98l0.43 -0.44c43.31,-43.26 98.5,-74.58 160.16,-88.56 3.49,-27 5.28,-54.76 5.28,-83.32 0,-466.03 -469.12,-577.87 -801.59,-664.81 -298.24,-77.7 -438.04,-118.08 -438.04,-220.63 0,-121.14 186.39,-189.51 338.65,-189.51 173.44,0 287.64,90.89 326.73,181.31 18.03,41.71 56.91,67.24 102.38,67.24l294.01 0c35.3,0 65.69,-14.71 87.54,-42.4 21.88,-27.7 29.19,-60.67 20.99,-95.01 -68.68,-288.17 -351.14,-567.84 -825.44,-567.84z"/>
      <path class="fil2" d="M9883.51 53.76l-289.52 0c-61.42,0 -111.54,50.13 -111.54,111.55l0 868.39c0,47.89 -28.63,88.69 -73.69,104.95 -45.06,16.25 -93.16,3.12 -123.73,-33.76l-837.86 -1010.76c-21.94,-26.46 -51.52,-40.37 -85.9,-40.37l-348.63 0c-61.42,0 -111.54,50.13 -111.54,111.55l0 1889.5c0,61.43 50.12,111.55 111.54,111.55l289.52 0c61.42,0 111.55,-50.12 111.55,-111.55l0 -870.92c0,-47.92 28.69,-88.72 73.79,-104.94 45.09,-16.22 93.2,-3.05 123.73,33.86l837.75 1013.08c21.94,26.53 51.56,40.47 85.97,40.47l348.56 0c61.42,0 111.55,-50.12 111.55,-111.55l0 -1889.5c0,-61.42 -50.13,-111.55 -111.55,-111.55z"/>
      <path class="fil2" d="M7654.48 53.76l-286.39 0c-61.42,0 -111.55,50.13 -111.55,111.55l0 1889.5c0,61.43 50.13,111.55 111.55,111.55l286.39 0c61.43,0 111.55,-50.12 111.55,-111.55l0 -1889.5c0,-61.42 -50.12,-111.55 -111.55,-111.55z"/>
      <path class="fil2" d="M6826.39 53.76l-347.19 0c-33.43,0 -62.24,13.1 -84.18,38.35l-578.69 665.51c-31.12,35.81 -78.82,47.89 -123.26,31.3 -44.43,-16.62 -72.47,-57.06 -72.47,-104.5l0 -519.11c0,-61.42 -50.12,-111.55 -111.55,-111.55l-286.39 0c-61.43,0 -111.55,50.13 -111.55,111.55l0 1889.5c0,61.43 50.12,111.55 111.55,111.55l286.39 0c61.43,0 111.55,-50.12 111.55,-111.55l0 -320.48c0,-28.95 9.65,-53.86 29.21,-75.26l237.85 -260.15c23.96,-26.2 55.59,-38.75 91,-35.96 35.41,2.75 64.73,20.03 84.32,49.64l465.86 703.79c21.29,32.18 54.46,49.97 93.02,49.97l387.67 0c42.68,0 79.22,-22.2 98.93,-60.03 19.7,-37.83 16.91,-80.54 -7.53,-115.47l-710.09 -1015.1c-29.54,-42.23 -26.86,-97.2 6.6,-136.39l513.79 -601.63c28.91,-33.86 35.11,-78.7 16.47,-119.14 -18.67,-40.44 -56.76,-64.84 -101.31,-64.84z"/>
      <path class="fil2" d="M4564.22 2166.36l299.89 0c38.64,0 71.89,-17.9 93.17,-50.16 21.24,-32.29 24.58,-69.9 9.32,-105.42l-811.37 -1889.46c-17.98,-41.87 -56.91,-67.56 -102.49,-67.56l-421.42 0c-45.61,0 -84.62,25.73 -102.56,67.67l-808.58 1889.5c-15.19,35.52 -11.86,73.09 9.43,105.31 21.28,32.25 54.49,50.12 93.13,50.12l297.65 0c45.72,0 84.8,-25.87 102.67,-67.95l82.12 -193.42c17.87,-42.08 56.95,-67.95 102.67,-67.95l870.71 0c46.05,0 85.38,26.27 103.03,68.8l79.59 191.72c17.65,42.53 56.99,68.8 103.04,68.8zm-987.14 -900.83l165.93 -390.2c17.95,-42.19 57.17,-68.03 103,-67.92 45.87,0.15 84.95,26.28 102.6,68.58l162.88 390.24c14.82,35.48 11.19,72.8 -10.13,104.8 -21.32,32.03 -54.38,49.72 -92.83,49.72l-328.78 0c-38.6,0 -71.77,-17.84 -93.05,-50.02 -21.29,-32.18 -24.7,-69.68 -9.62,-105.2z"/>
     </g>
     <path class="fil3" style="mask:url(#id2)" d="M11318.83 1451.09c47.32,31.32 76.21,71.06 76.21,124.99 0,90.1 -83.88,186.4 -310.69,186.4 -30.45,0 -58.84,-1.8 -85.44,-5.08l-381.92 365.64c121.77,50.44 267.58,80.6 439.4,80.6 239.96,0 446.94,-59.41 596.34,-166.77 -7.01,-26.67 -10.73,-54.63 -10.73,-83.45 0,-90.82 36.99,-173.24 96.7,-232.98l0.43 -0.44c43.31,-43.26 98.5,-74.58 160.16,-88.56 3.49,-27 5.28,-54.76 5.28,-83.32 0,-207.81 -93.31,-345.15 -226.14,-441.29l-359.6 344.26z"/>
    </g>
   </g>
  </g>
 </g>
</svg>
